<svg width="232" height="33" viewBox="0 0 232 33" fill="none" xmlns="http://www.w3.org/2000/svg">
<path d="M12.376 26.384C10.0933 26.384 8.024 25.8933 6.168 24.912C4.33333 23.9093 2.88267 22.5333 1.816 20.784C0.770667 19.0133 0.248 17.0187 0.248 14.8C0.248 12.5813 0.770667 10.5973 1.816 8.848C2.88267 7.07733 4.33333 5.70133 6.168 4.72C8.024 3.71733 10.104 3.216 12.408 3.216C14.3493 3.216 16.0987 3.55733 17.656 4.24C19.2347 4.92267 20.5573 5.904 21.624 7.184L18.296 10.256C16.7813 8.50667 14.904 7.632 12.664 7.632C11.2773 7.632 10.04 7.94133 8.952 8.56C7.864 9.15733 7.01067 10 6.392 11.088C5.79467 12.176 5.496 13.4133 5.496 14.8C5.496 16.1867 5.79467 17.424 6.392 18.512C7.01067 19.6 7.864 20.4533 8.952 21.072C10.04 21.6693 11.2773 21.968 12.664 21.968C14.904 21.968 16.7813 21.0827 18.296 19.312L21.624 22.384C20.5573 23.6853 19.2347 24.6773 17.656 25.36C16.0773 26.0427 14.3173 26.384 12.376 26.384ZM26.9808 11.056C27.5781 10.224 28.3781 9.59467 29.3808 9.168C30.4048 8.74133 31.5781 8.528 32.9008 8.528V13.136C32.3461 13.0933 31.9728 13.072 31.7808 13.072C30.3514 13.072 29.2314 13.4773 28.4208 14.288C27.6101 15.0773 27.2048 16.272 27.2048 17.872V26H22.2128V8.784H26.9808V11.056ZM41.8248 22.256C42.7208 22.256 43.5101 22.128 44.1928 21.872C44.8968 21.5947 45.5474 21.168 46.1448 20.592L48.8008 23.472C47.1794 25.328 44.8114 26.256 41.6968 26.256C39.7554 26.256 38.0381 25.8827 36.5448 25.136C35.0514 24.368 33.8994 23.312 33.0888 21.968C32.2781 20.624 31.8728 19.0987 31.8728 17.392C31.8728 15.7067 32.2674 14.192 33.0568 12.848C33.8674 11.4827 34.9661 10.4267 36.3528 9.68C37.7608 8.912 39.3394 8.528 41.0888 8.528C42.7314 8.528 44.2248 8.88 45.5688 9.584C46.9128 10.2667 47.9794 11.2693 48.7688 12.592C49.5794 13.8933 49.9848 15.44 49.9848 17.232L37.2488 19.696C37.6114 20.5493 38.1768 21.1893 38.9448 21.616C39.7341 22.0427 40.6941 22.256 41.8248 22.256ZM41.0888 12.304C39.8301 12.304 38.8061 12.7093 38.0168 13.52C37.2274 14.3307 36.8114 15.4507 36.7688 16.88L45.1528 15.248C44.9181 14.352 44.4381 13.6373 43.7128 13.104C42.9874 12.5707 42.1128 12.304 41.0888 12.304ZM68.2523 8.784V26H63.4843V24.016C62.2469 25.5093 60.4549 26.256 58.1083 26.256C56.4869 26.256 55.0149 25.8933 53.6922 25.168C52.3909 24.4427 51.3669 23.408 50.6202 22.064C49.8736 20.72 49.5002 19.1627 49.5002 17.392C49.5002 15.6213 49.8736 14.064 50.6202 12.72C51.3669 11.376 52.3909 10.3413 53.6922 9.616C55.0149 8.89067 56.4869 8.528 58.1083 8.528C60.3056 8.528 62.0229 9.22133 63.2603 10.608V8.784H68.2523ZM58.9722 22.16C60.2309 22.16 61.2763 21.7333 62.1083 20.88C62.9403 20.0053 63.3563 18.8427 63.3563 17.392C63.3563 15.9413 62.9403 14.7893 62.1083 13.936C61.2763 13.0613 60.2309 12.624 58.9722 12.624C57.6922 12.624 56.6363 13.0613 55.8043 13.936C54.9723 14.7893 54.5563 15.9413 54.5563 17.392C54.5563 18.8427 54.9723 20.0053 55.8043 20.88C56.6363 21.7333 57.6922 22.16 58.9722 22.16ZM80.682 25.168C80.1913 25.5307 79.5833 25.808 78.858 26C78.154 26.1707 77.418 26.256 76.65 26.256C74.5807 26.256 72.9913 25.7333 71.882 24.688C70.7727 23.6427 70.218 22.1067 70.218 20.08V4.976H75.21V9.168H79.466V13.008H75.21V20.016C75.21 20.7413 75.3913 21.3067 75.754 21.712C76.1167 22.096 76.6393 22.288 77.322 22.288C78.09 22.288 78.7727 22.0747 79.37 21.648L80.682 25.168ZM80.9415 8.784H85.9335V26H80.9415V8.784ZM83.4375 6.384C82.5202 6.384 81.7735 6.11733 81.1975 5.584C80.6215 5.05067 80.3335 4.38933 80.3335 3.6C80.3335 2.81067 80.6215 2.14933 81.1975 1.616C81.7735 1.08267 82.5202 0.815998 83.4375 0.815998C84.3548 0.815998 85.1015 1.072 85.6775 1.584C86.2535 2.096 86.5415 2.736 86.5415 3.504C86.5415 4.336 86.2535 5.02933 85.6775 5.584C85.1015 6.11733 84.3548 6.384 83.4375 6.384ZM105.094 8.784L97.8305 26H92.6785L85.4465 8.784H90.5985L95.3665 20.496L100.295 8.784H105.094ZM112.775 22.256C113.671 22.256 114.46 22.128 115.143 21.872C115.847 21.5947 116.497 21.168 117.095 20.592L119.751 23.472C118.129 25.328 115.761 26.256 112.647 26.256C110.705 26.256 108.988 25.8827 107.495 25.136C106.001 24.368 104.849 23.312 104.039 21.968C103.228 20.624 102.823 19.0987 102.823 17.392C102.823 15.7067 103.217 14.192 104.007 12.848C104.817 11.4827 105.916 10.4267 107.303 9.68C108.711 8.912 110.289 8.528 112.039 8.528C113.681 8.528 115.175 8.88 116.519 9.584C117.863 10.2667 118.929 11.2693 119.719 12.592C120.529 13.8933 120.935 15.44 120.935 17.232L108.199 19.696C108.561 20.5493 109.127 21.1893 109.895 21.616C110.684 22.0427 111.644 22.256 112.775 22.256ZM112.039 12.304C110.78 12.304 109.756 12.7093 108.967 13.52C108.177 14.3307 107.761 15.4507 107.719 16.88L116.103 15.248C115.868 14.352 115.388 13.6373 114.663 13.104C113.937 12.5707 113.063 12.304 112.039 12.304ZM129.762 7.76V21.84H133.634V26H120.674V21.84H124.578V7.76H120.674V3.6H133.634V7.76H129.762ZM156.687 8.528C158.842 8.528 160.548 9.168 161.807 10.448C163.087 11.7067 163.727 13.6053 163.727 16.144V26H158.735V16.912C158.735 15.5467 158.447 14.5333 157.871 13.872C157.316 13.1893 156.516 12.848 155.471 12.848C154.298 12.848 153.37 13.232 152.687 14C152.004 14.7467 151.663 15.8667 151.663 17.36V26H146.671V16.912C146.671 14.2027 145.583 12.848 143.407 12.848C142.255 12.848 141.338 13.232 140.655 14C139.972 14.7467 139.631 15.8667 139.631 17.36V26H134.639V8.784H139.407V10.768C140.047 10.0427 140.826 9.488 141.743 9.104C142.682 8.72 143.706 8.528 144.815 8.528C146.031 8.528 147.13 8.77333 148.111 9.264C149.092 9.73333 149.882 10.4267 150.479 11.344C151.183 10.448 152.068 9.75467 153.135 9.264C154.223 8.77333 155.407 8.528 156.687 8.528ZM175.817 8.528C177.417 8.528 178.868 8.90133 180.169 9.648C181.492 10.3733 182.527 11.408 183.273 12.752C184.02 14.0747 184.393 15.6213 184.393 17.392C184.393 19.1627 184.02 20.72 183.273 22.064C182.527 23.3867 181.492 24.4213 180.169 25.168C178.868 25.8933 177.417 26.256 175.817 26.256C173.62 26.256 171.892 25.5627 170.633 24.176V32.208H165.641V8.784H170.409V10.768C171.647 9.27467 173.449 8.528 175.817 8.528ZM174.953 22.16C176.233 22.16 177.279 21.7333 178.089 20.88C178.921 20.0053 179.337 18.8427 179.337 17.392C179.337 15.9413 178.921 14.7893 178.089 13.936C177.279 13.0613 176.233 12.624 174.953 12.624C173.673 12.624 172.617 13.0613 171.785 13.936C170.975 14.7893 170.569 15.9413 170.569 17.392C170.569 18.8427 170.975 20.0053 171.785 20.88C172.617 21.7333 173.673 22.16 174.953 22.16ZM202.647 8.784V26H197.879V24.016C196.642 25.5093 194.85 26.256 192.503 26.256C190.882 26.256 189.41 25.8933 188.087 25.168C186.786 24.4427 185.762 23.408 185.015 22.064C184.269 20.72 183.895 19.1627 183.895 17.392C183.895 15.6213 184.269 14.064 185.015 12.72C185.762 11.376 186.786 10.3413 188.087 9.616C189.41 8.89067 190.882 8.528 192.503 8.528C194.701 8.528 196.418 9.22133 197.655 10.608V8.784H202.647ZM193.367 22.16C194.626 22.16 195.671 21.7333 196.503 20.88C197.335 20.0053 197.751 18.8427 197.751 17.392C197.751 15.9413 197.335 14.7893 196.503 13.936C195.671 13.0613 194.626 12.624 193.367 12.624C192.087 12.624 191.031 13.0613 190.199 13.936C189.367 14.7893 188.951 15.9413 188.951 17.392C188.951 18.8427 189.367 20.0053 190.199 20.88C191.031 21.7333 192.087 22.16 193.367 22.16ZM213.029 26.256C211.194 26.256 209.541 25.8827 208.069 25.136C206.618 24.368 205.477 23.312 204.645 21.968C203.834 20.624 203.429 19.0987 203.429 17.392C203.429 15.6853 203.834 14.16 204.645 12.816C205.477 11.472 206.618 10.4267 208.069 9.68C209.541 8.912 211.194 8.528 213.029 8.528C214.842 8.528 216.421 8.912 217.765 9.68C219.13 10.4267 220.122 11.504 220.741 12.912L216.869 14.992C215.973 13.4133 214.682 12.624 212.997 12.624C211.696 12.624 210.618 13.0507 209.765 13.904C208.912 14.7573 208.485 15.92 208.485 17.392C208.485 18.864 208.912 20.0267 209.765 20.88C210.618 21.7333 211.696 22.16 212.997 22.16C214.704 22.16 215.994 21.3707 216.869 19.792L220.741 21.904C220.122 23.2693 219.13 24.336 217.765 25.104C216.421 25.872 214.842 26.256 213.029 26.256ZM231.298 25.168C230.808 25.5307 230.2 25.808 229.474 26C228.77 26.1707 228.034 26.256 227.266 26.256C225.197 26.256 223.608 25.7333 222.498 24.688C221.389 23.6427 220.834 22.1067 220.834 20.08V4.976H225.826V9.168H230.082V13.008H225.826V20.016C225.826 20.7413 226.008 21.3067 226.37 21.712C226.733 22.096 227.256 22.288 227.938 22.288C228.706 22.288 229.389 22.0747 229.986 21.648L231.298 25.168Z" fill="white"/>
</svg>
